<?xml version="1.0" encoding="UTF-8"?>
<svg width="512" height="512" viewBox="0 0 512 512" xmlns="http://www.w3.org/2000/svg">
  <!-- Background -->
  <rect width="512" height="512" fill="#2c5530" rx="64"/>
  
  <!-- Calculator Icon -->
  <rect x="80" y="80" width="352" height="352" fill="#ffffff" rx="24"/>
  
  <!-- Screen -->
  <rect x="112" y="112" width="288" height="80" fill="#f5f7fa" rx="8"/>
  
  <!-- Euro Symbol -->
  <text x="150" y="165" font-family="Arial, sans-serif" font-size="48" font-weight="bold" fill="#2c5530">€</text>
  
  <!-- Calculator Buttons Grid -->
  <rect x="128" y="216" width="48" height="40" fill="#e8f5e9" rx="6"/>
  <rect x="192" y="216" width="48" height="40" fill="#e8f5e9" rx="6"/>
  <rect x="256" y="216" width="48" height="40" fill="#e8f5e9" rx="6"/>
  <rect x="320" y="216" width="48" height="40" fill="#1565c0" rx="6"/>
  
  <rect x="128" y="272" width="48" height="40" fill="#e8f5e9" rx="6"/>
  <rect x="192" y="272" width="48" height="40" fill="#e8f5e9" rx="6"/>
  <rect x="256" y="272" width="48" height="40" fill="#e8f5e9" rx="6"/>
  <rect x="320" y="272" width="48" height="40" fill="#7b1fa2" rx="6"/>
  
  <rect x="128" y="328" width="48" height="40" fill="#e8f5e9" rx="6"/>
  <rect x="192" y="328" width="48" height="40" fill="#e8f5e9" rx="6"/>
  <rect x="256" y="328" width="48" height="40" fill="#e8f5e9" rx="6"/>
  <rect x="320" y="328" width="48" height="40" fill="#d84315" rx="6"/>
  
  <!-- Irish Flag Colors as Accent -->
  <rect x="384" y="112" width="8" height="80" fill="#009639"/>
  <rect x="392" y="112" width="8" height="80" fill="#ffffff"/>
  <rect x="400" y="112" width="8" height="80" fill="#ff7900"/>
  
  <!-- Text -->
  <text x="256" y="410" font-family="Arial, sans-serif" font-size="24" font-weight="bold" fill="#ffffff" text-anchor="middle">IE</text>
  <text x="256" y="440" font-family="Arial, sans-serif" font-size="16" fill="#ffffff" text-anchor="middle">Payroll</text>
</svg>